<svg width="263" height="94" viewBox="0 0 263 94" fill="none" xmlns="http://www.w3.org/2000/svg">
<g filter="url(#filter0_d_1_1749)">
<rect x="17.1509" y="16.3984" width="228.849" height="49.8383" rx="8.13686" fill="white" shape-rendering="crispEdges"/>
<path d="M43.2785 35.2056V47.041H40.0654V38.1644H39.996L37.407 39.7132V36.9855L40.3196 35.2056H43.2785ZM45.7086 47.041V44.7294L50.1237 41.0771C50.4165 40.8343 50.667 40.607 50.875 40.3951C51.0869 40.1794 51.2487 39.9579 51.3604 39.7306C51.476 39.5032 51.5338 39.2509 51.5338 38.9735C51.5338 38.6691 51.4683 38.4091 51.3373 38.1933C51.2102 37.9776 51.033 37.8119 50.8057 37.6963C50.5784 37.5769 50.3164 37.5172 50.0197 37.5172C49.7231 37.5172 49.4611 37.5769 49.2338 37.6963C49.0103 37.8158 48.8369 37.9911 48.7137 38.2222C48.5904 38.4534 48.5287 38.7346 48.5287 39.066H45.4774C45.4774 38.2338 45.6643 37.5172 46.038 36.9162C46.4117 36.3152 46.9395 35.8528 47.6214 35.5292C48.3033 35.2056 49.1028 35.0438 50.0197 35.0438C50.9675 35.0438 51.7881 35.196 52.4816 35.5003C53.1789 35.8008 53.7164 36.2246 54.0939 36.7717C54.4753 37.3188 54.666 37.9603 54.666 38.6961C54.666 39.1507 54.5717 39.6034 54.3829 40.0542C54.1941 40.5011 53.8551 40.9962 53.3658 41.5394C52.8765 42.0826 52.1811 42.7299 51.2795 43.4811L50.17 44.4058V44.4751H54.7932V47.041H45.7086ZM61.0605 47.2028C60.1051 47.2028 59.2517 47.0545 58.5004 46.7578C57.753 46.4612 57.1635 46.0586 56.732 45.55C56.3044 45.0415 56.0906 44.4674 56.0906 43.8279C56.0906 43.3386 56.2119 42.8917 56.4546 42.4871C56.7012 42.0826 57.0326 41.7474 57.4486 41.4816C57.8647 41.2119 58.329 41.0385 58.8414 40.9615V40.869C58.1672 40.7534 57.6124 40.4549 57.177 39.9733C56.7455 39.4878 56.5298 38.9157 56.5298 38.2569C56.5298 37.6366 56.7263 37.0857 57.1192 36.6041C57.5122 36.1187 58.0497 35.7373 58.7316 35.4599C59.4135 35.1825 60.1898 35.0438 61.0605 35.0438C61.9312 35.0438 62.7075 35.1844 63.3895 35.4656C64.0714 35.743 64.6088 36.1244 65.0018 36.6099C65.3948 37.0915 65.5913 37.6405 65.5913 38.2569C65.5913 38.9196 65.3717 39.4917 64.9325 39.9733C64.4933 40.4549 63.9423 40.7534 63.2797 40.869V40.9615C63.7882 41.0385 64.2505 41.2119 64.6666 41.4816C65.0827 41.7474 65.4141 42.0826 65.6606 42.4871C65.9072 42.8917 66.0305 43.3386 66.0305 43.8279C66.0305 44.4674 65.8147 45.0415 65.3832 45.55C64.9556 46.0586 64.3661 46.4612 63.6149 46.7578C62.8674 47.0545 62.016 47.2028 61.0605 47.2028ZM61.0605 44.9837C61.3649 44.9837 61.6346 44.922 61.8696 44.7988C62.1046 44.6755 62.2895 44.506 62.4244 44.2902C62.5631 44.0706 62.6324 43.824 62.6324 43.5505C62.6324 43.2769 62.5631 43.0342 62.4244 42.8223C62.2895 42.6104 62.1046 42.4448 61.8696 42.3253C61.6346 42.2021 61.3649 42.1404 61.0605 42.1404C60.76 42.1404 60.4903 42.2021 60.2515 42.3253C60.0165 42.4448 59.8296 42.6104 59.6909 42.8223C59.5561 43.0342 59.4886 43.2769 59.4886 43.5505C59.4886 43.824 59.5561 44.0687 59.6909 44.2844C59.8296 44.5002 60.0165 44.6716 60.2515 44.7988C60.4903 44.922 60.76 44.9837 61.0605 44.9837ZM61.0605 39.9213C61.3302 39.9213 61.5691 39.8654 61.7771 39.7537C61.9852 39.6419 62.1489 39.4878 62.2683 39.2914C62.3878 39.0949 62.4475 38.8733 62.4475 38.6268C62.4475 38.3802 62.3878 38.1625 62.2683 37.9737C62.1489 37.7811 61.9852 37.6308 61.7771 37.523C61.5691 37.4112 61.3302 37.3554 61.0605 37.3554C60.7947 37.3554 60.5558 37.4112 60.3439 37.523C60.1359 37.6308 59.9721 37.7811 59.8527 37.9737C59.7333 38.1625 59.6736 38.3802 59.6736 38.6268C59.6736 38.8733 59.7333 39.0949 59.8527 39.2914C59.9721 39.484 60.1359 39.6381 60.3439 39.7537C60.5558 39.8654 60.7947 39.9213 61.0605 39.9213ZM75.862 47.3646C74.7871 47.3608 73.8586 47.1123 73.0766 46.6191C72.2945 46.126 71.6915 45.4152 71.2677 44.4867C70.8439 43.5582 70.634 42.4448 70.6378 41.1464C70.6417 39.8442 70.8536 38.7385 71.2735 37.8293C71.6973 36.92 72.2983 36.2285 73.0766 35.7546C73.8586 35.2807 74.7871 35.0438 75.862 35.0438C76.9369 35.0438 77.8654 35.2826 78.6475 35.7604C79.4296 36.2343 80.0326 36.9258 80.4564 37.835C80.8802 38.7443 81.0901 39.8481 81.0863 41.1464C81.0863 42.4525 80.8744 43.5698 80.4506 44.4982C80.0268 45.4267 79.4238 46.1376 78.6417 46.6307C77.8635 47.12 76.9369 47.3646 75.862 47.3646ZM75.862 44.7525C76.4168 44.7525 76.8714 44.4636 77.2259 43.8857C77.5842 43.3039 77.7614 42.3908 77.7576 41.1464C77.7576 40.3335 77.6767 39.6689 77.5148 39.1527C77.353 38.6364 77.1296 38.255 76.8445 38.0084C76.5594 37.758 76.2319 37.6328 75.862 37.6328C75.3073 37.6328 74.8546 37.914 74.504 38.4765C74.1534 39.039 73.9742 39.929 73.9665 41.1464C73.9627 41.9747 74.0416 42.6567 74.2035 43.1922C74.3653 43.7239 74.5887 44.1168 74.8738 44.3711C75.1628 44.6254 75.4922 44.7525 75.862 44.7525ZM87.7495 47.3646C86.6746 47.3608 85.7461 47.1123 84.964 46.6191C84.1819 46.126 83.579 45.4152 83.1552 44.4867C82.7314 43.5582 82.5214 42.4448 82.5252 41.1464C82.5291 39.8442 82.741 38.7385 83.1609 37.8293C83.5847 36.92 84.1858 36.2285 84.964 35.7546C85.7461 35.2807 86.6746 35.0438 87.7495 35.0438C88.8244 35.0438 89.7529 35.2826 90.535 35.7604C91.3171 36.2343 91.92 36.9258 92.3438 37.835C92.7676 38.7443 92.9776 39.8481 92.9737 41.1464C92.9737 42.4525 92.7618 43.5698 92.338 44.4982C91.9142 45.4267 91.3113 46.1376 90.5292 46.6307C89.7509 47.12 88.8244 47.3646 87.7495 47.3646ZM87.7495 44.7525C88.3043 44.7525 88.7589 44.4636 89.1133 43.8857C89.4716 43.3039 89.6489 42.3908 89.645 41.1464C89.645 40.3335 89.5641 39.6689 89.4023 39.1527C89.2405 38.6364 89.017 38.255 88.7319 38.0084C88.4468 37.758 88.1193 37.6328 87.7495 37.6328C87.1947 37.6328 86.742 37.914 86.3914 38.4765C86.0408 39.039 85.8617 39.929 85.854 41.1464C85.8501 41.9747 85.9291 42.6567 86.0909 43.1922C86.2527 43.7239 86.4762 44.1168 86.7613 44.3711C87.0502 44.6254 87.3796 44.7525 87.7495 44.7525ZM99.6369 47.3646C98.562 47.3608 97.6335 47.1123 96.8514 46.6191C96.0693 46.126 95.4664 45.4152 95.0426 44.4867C94.6188 43.5582 94.4088 42.4448 94.4127 41.1464C94.4165 39.8442 94.6284 38.7385 95.0484 37.8293C95.4722 36.92 96.0732 36.2285 96.8514 35.7546C97.6335 35.2807 98.562 35.0438 99.6369 35.0438C100.712 35.0438 101.64 35.2826 102.422 35.7604C103.205 36.2343 103.807 36.9258 104.231 37.835C104.655 38.7443 104.865 39.8481 104.861 41.1464C104.861 42.4525 104.649 43.5698 104.225 44.4982C103.802 45.4267 103.199 46.1376 102.417 46.6307C101.638 47.12 100.712 47.3646 99.6369 47.3646ZM99.6369 44.7525C100.192 44.7525 100.646 44.4636 101.001 43.8857C101.359 43.3039 101.536 42.3908 101.532 41.1464C101.532 40.3335 101.452 39.6689 101.29 39.1527C101.128 38.6364 100.904 38.255 100.619 38.0084C100.334 37.758 100.007 37.6328 99.6369 37.6328C99.0821 37.6328 98.6294 37.914 98.2789 38.4765C97.9283 39.039 97.7491 39.929 97.7414 41.1464C97.7376 41.9747 97.8165 42.6567 97.9783 43.1922C98.1402 43.7239 98.3636 44.1168 98.6487 44.3711C98.9377 44.6254 99.2671 44.7525 99.6369 44.7525ZM116.176 43.1113H109.681V40.6147H116.061C116.473 40.6147 116.808 40.5647 117.066 40.4645C117.328 40.3605 117.519 40.2102 117.639 40.0137C117.762 39.8134 117.822 39.5668 117.818 39.274C117.822 38.9966 117.762 38.7423 117.639 38.5112C117.519 38.28 117.336 38.0951 117.09 37.9564C116.847 37.8177 116.542 37.7484 116.176 37.7484H114.42V47.041H111.23V35.2056H116.176C117.151 35.2056 118.005 35.377 118.737 35.7199C119.472 36.0628 120.043 36.5367 120.447 37.1416C120.856 37.7464 121.058 38.4418 121.054 39.2278C121.058 40.0754 120.85 40.7881 120.43 41.366C120.01 41.9401 119.432 42.3754 118.696 42.6721C117.96 42.9649 117.12 43.1113 116.176 43.1113ZM116.986 43.643V46.1395H109.681V43.643H116.986Z" fill="#FF6536"/>
<path d="M143.49 47.041V44.7294L147.905 41.0771C148.198 40.8343 148.448 40.607 148.656 40.3951C148.868 40.1794 149.03 39.9579 149.142 39.7306C149.257 39.5032 149.315 39.2509 149.315 38.9735C149.315 38.6691 149.25 38.4091 149.119 38.1933C148.991 37.9776 148.814 37.8119 148.587 37.6963C148.36 37.5769 148.098 37.5172 147.801 37.5172C147.504 37.5172 147.242 37.5769 147.015 37.6963C146.792 37.8158 146.618 37.9911 146.495 38.2222C146.372 38.4534 146.31 38.7346 146.31 39.066H143.259C143.259 38.2338 143.445 37.5172 143.819 36.9162C144.193 36.3152 144.721 35.8528 145.403 35.5292C146.085 35.2056 146.884 35.0438 147.801 35.0438C148.749 35.0438 149.569 35.196 150.263 35.5003C150.96 35.8008 151.498 36.2246 151.875 36.7717C152.257 37.3188 152.447 37.9603 152.447 38.6961C152.447 39.1507 152.353 39.6034 152.164 40.0542C151.975 40.5011 151.636 40.9962 151.147 41.5394C150.658 42.0826 149.962 42.7299 149.061 43.4811L147.951 44.4058V44.4751H152.574V47.041H143.49ZM159.813 35.2056V47.041H156.6V38.1644H156.53L153.941 39.7132V36.9855L156.854 35.2056H159.813ZM166.982 47.2028C166.072 47.2028 165.265 47.0429 164.56 46.7232C163.859 46.3995 163.306 45.9546 162.902 45.3882C162.501 44.8219 162.297 44.1708 162.289 43.4349H165.41C165.421 43.8433 165.579 44.1688 165.884 44.4116C166.192 44.6543 166.558 44.7756 166.982 44.7756C167.309 44.7756 167.598 44.7063 167.848 44.5676C168.099 44.425 168.295 44.2247 168.438 43.9666C168.58 43.7084 168.65 43.4079 168.646 43.0651C168.65 42.7183 168.58 42.4178 168.438 42.1635C168.295 41.9054 168.099 41.707 167.848 41.5683C167.598 41.4257 167.309 41.3545 166.982 41.3545C166.642 41.3545 166.328 41.4373 166.04 41.603C165.754 41.7648 165.544 41.9902 165.41 42.2791L162.589 41.7243L163.052 35.2056H171.004V37.7715H165.687L165.456 40.3836H165.525C165.71 40.0253 166.03 39.7286 166.485 39.4936C166.939 39.2548 167.467 39.1353 168.068 39.1353C168.773 39.1353 169.401 39.2991 169.952 39.6265C170.507 39.954 170.944 40.4067 171.264 40.9846C171.587 41.5587 171.747 42.2213 171.743 42.9726C171.747 43.7971 171.551 44.5291 171.154 45.1686C170.761 45.8043 170.208 46.3032 169.495 46.6654C168.783 47.0237 167.945 47.2028 166.982 47.2028ZM181.526 47.3646C180.451 47.3608 179.522 47.1123 178.74 46.6191C177.958 46.126 177.355 45.4152 176.932 44.4867C176.508 43.5582 176.298 42.4448 176.302 41.1464C176.305 39.8442 176.517 38.7385 176.937 37.8293C177.361 36.92 177.962 36.2285 178.74 35.7546C179.522 35.2807 180.451 35.0438 181.526 35.0438C182.601 35.0438 183.529 35.2826 184.311 35.7604C185.093 36.2343 185.696 36.9258 186.12 37.835C186.544 38.7443 186.754 39.8481 186.75 41.1464C186.75 42.4525 186.538 43.5698 186.114 44.4982C185.691 45.4267 185.088 46.1376 184.306 46.6307C183.527 47.12 182.601 47.3646 181.526 47.3646ZM181.526 44.7525C182.081 44.7525 182.535 44.4636 182.89 43.8857C183.248 43.3039 183.425 42.3908 183.421 41.1464C183.421 40.3335 183.34 39.6689 183.179 39.1527C183.017 38.6364 182.793 38.255 182.508 38.0084C182.223 37.758 181.896 37.6328 181.526 37.6328C180.971 37.6328 180.518 37.914 180.168 38.4765C179.817 39.039 179.638 39.929 179.63 41.1464C179.626 41.9747 179.705 42.6567 179.867 43.1922C180.029 43.7239 180.253 44.1168 180.538 44.3711C180.827 44.6254 181.156 44.7525 181.526 44.7525ZM193.413 47.3646C192.338 47.3608 191.41 47.1123 190.628 46.6191C189.846 46.126 189.243 45.4152 188.819 44.4867C188.395 43.5582 188.185 42.4448 188.189 41.1464C188.193 39.8442 188.405 38.7385 188.825 37.8293C189.249 36.92 189.85 36.2285 190.628 35.7546C191.41 35.2807 192.338 35.0438 193.413 35.0438C194.488 35.0438 195.417 35.2826 196.199 35.7604C196.981 36.2343 197.584 36.9258 198.008 37.835C198.431 38.7443 198.641 39.8481 198.638 41.1464C198.638 42.4525 198.426 43.5698 198.002 44.4982C197.578 45.4267 196.975 46.1376 196.193 46.6307C195.415 47.12 194.488 47.3646 193.413 47.3646ZM193.413 44.7525C193.968 44.7525 194.423 44.4636 194.777 43.8857C195.135 43.3039 195.313 42.3908 195.309 41.1464C195.309 40.3335 195.228 39.6689 195.066 39.1527C194.904 38.6364 194.681 38.255 194.396 38.0084C194.111 37.758 193.783 37.6328 193.413 37.6328C192.859 37.6328 192.406 37.914 192.055 38.4765C191.705 39.039 191.525 39.929 191.518 41.1464C191.514 41.9747 191.593 42.6567 191.755 43.1922C191.917 43.7239 192.14 44.1168 192.425 44.3711C192.714 44.6254 193.043 44.7525 193.413 44.7525ZM205.301 47.3646C204.226 47.3608 203.297 47.1123 202.515 46.6191C201.733 46.126 201.13 45.4152 200.706 44.4867C200.283 43.5582 200.073 42.4448 200.077 41.1464C200.08 39.8442 200.292 38.7385 200.712 37.8293C201.136 36.92 201.737 36.2285 202.515 35.7546C203.297 35.2807 204.226 35.0438 205.301 35.0438C206.376 35.0438 207.304 35.2826 208.086 35.7604C208.868 36.2343 209.471 36.9258 209.895 37.835C210.319 38.7443 210.529 39.8481 210.525 41.1464C210.525 42.4525 210.313 43.5698 209.889 44.4982C209.465 45.4267 208.863 46.1376 208.08 46.6307C207.302 47.12 206.376 47.3646 205.301 47.3646ZM205.301 44.7525C205.856 44.7525 206.31 44.4636 206.665 43.8857C207.023 43.3039 207.2 42.3908 207.196 41.1464C207.196 40.3335 207.115 39.6689 206.954 39.1527C206.792 38.6364 206.568 38.255 206.283 38.0084C205.998 37.758 205.671 37.6328 205.301 37.6328C204.746 37.6328 204.293 37.914 203.943 38.4765C203.592 39.039 203.413 39.929 203.405 41.1464C203.401 41.9747 203.48 42.6567 203.642 43.1922C203.804 43.7239 204.027 44.1168 204.313 44.3711C204.601 44.6254 204.931 44.7525 205.301 44.7525ZM221.84 43.1113H215.345V40.6147H221.725C222.137 40.6147 222.472 40.5647 222.73 40.4645C222.992 40.3605 223.183 40.2102 223.302 40.0137C223.426 39.8134 223.485 39.5668 223.482 39.274C223.485 38.9966 223.426 38.7423 223.302 38.5112C223.183 38.28 223 38.0951 222.753 37.9564C222.511 37.8177 222.206 37.7484 221.84 37.7484H220.083V47.041H216.893V35.2056H221.84C222.815 35.2056 223.668 35.377 224.4 35.7199C225.136 36.0628 225.706 36.5367 226.111 37.1416C226.519 37.7464 226.722 38.4418 226.718 39.2278C226.722 40.0754 226.514 40.7881 226.094 41.366C225.674 41.9401 225.096 42.3754 224.36 42.6721C223.624 42.9649 222.784 43.1113 221.84 43.1113ZM222.649 43.643V46.1395H215.345V43.643H222.649Z" fill="#FF6536"/>
<path d="M97.2481 77.6791L73.3461 53.7771H121.15L97.2481 77.6791Z" fill="white"/>
</g>
<defs>
<filter id="filter0_d_1_1749" x="0.877163" y="0.124722" width="261.397" height="93.8282" filterUnits="userSpaceOnUse" color-interpolation-filters="sRGB">
<feFlood flood-opacity="0" result="BackgroundImageFix"/>
<feColorMatrix in="SourceAlpha" type="matrix" values="0 0 0 0 0 0 0 0 0 0 0 0 0 0 0 0 0 0 127 0" result="hardAlpha"/>
<feOffset/>
<feGaussianBlur stdDeviation="8.13686"/>
<feComposite in2="hardAlpha" operator="out"/>
<feColorMatrix type="matrix" values="0 0 0 0 0.305882 0 0 0 0 0.364706 0 0 0 0 0.486275 0 0 0 0.32 0"/>
<feBlend mode="normal" in2="BackgroundImageFix" result="effect1_dropShadow_1_1749"/>
<feBlend mode="normal" in="SourceGraphic" in2="effect1_dropShadow_1_1749" result="shape"/>
</filter>
</defs>
</svg>
